# xmcd CD database file
#
# Track frame offsets:
#	150
#	18192
#	30907
#	68860
#	94530
#	121532
#	140890
#	184705
#	197280
#	239290
#	256377
#	266872
#	291920
#
# Disc length: 4114 seconds
#
# Revision: 0
# Processed by: cddbd v1.5.2PL0 Copyright (c) Steve Scherf et al.
# Submitted via: CDex 1.70beta2
#
DISCID=ae10100d
DTITLE=Marek Tomaszewski - Premiere
DYEAR=1900
DGENRE=Jazz
TTITLE0=Swing Pathetique
TTITLE1=AVM
TTITLE2=Prelude Fantaisie
TTITLE3=Nocturnes Blues
TTITLE4=Tango Revolution
TTITLE5=Dance No. 5
TTITLE6=II. Rhapsodie
TTITLE7=Winter
TTITLE8=Caravan
TTITLE9=Aquatique (Trilogie Fraternelle)
TTITLE10=Romantique (Trilogie Fraternelle)
TTITLE11=Numerique (Trilogie Fraternelle)
TTITLE12=Rhythm of Time 
EXTD=
EXTT0=
EXTT1=
EXTT2=
EXTT3=
EXTT4=
EXTT5=
EXTT6=
EXTT7=
EXTT8=
EXTT9=
EXTT10=
EXTT11=
EXTT12=
PLAYORDER=
